<svg width="153" height="137" viewBox="0 0 153 137" fill="none" xmlns="http://www.w3.org/2000/svg">
<path d="M126.904 106.636C124.312 108.259 115.017 113.012 106.246 117.2C89.7122 125.095 84.3423 126.757 95.653 120.479C114.256 110.154 124.925 103.276 126.704 100.463C127.793 98.737 129.145 91.061 129.705 83.4043C130.792 68.5683 132.243 55.2887 132.592 57.013C133.04 59.2319 132.747 87.5918 132.196 95.4328C131.63 103.461 131.487 103.767 126.904 106.636Z" fill="black"/>
<path d="M122.965 98.4033L103.444 109.567L83.9237 120.73L64.9671 108.689L46.0116 96.6481L47.0634 78.1405C48.6961 49.4342 47.0094 52.2879 69.6235 39.9704L89.0421 29.3941L107.644 41.1846L126.244 52.9756L125.792 60.4278C125.542 64.5251 124.804 74.7477 124.151 83.1413L122.965 98.4033Z" fill="black"/>
<path d="M43.2334 58.0396C43.1176 61.7011 42.6413 67.845 42.1752 71.6917L41.3311 78.6852L36.9912 68.3947C34.6043 62.7336 30.1807 52.8434 27.1618 46.4161C24.1417 39.9881 21.8425 34.4282 22.0498 34.0592C22.2583 33.6911 33.7339 33.3769 38.5748 33.5218C43.4149 33.668 53.8587 33.5682 61.7824 33.299C69.706 33.0297 68.6057 33.317 68.3146 33.7748C68.0235 34.2325 62.8904 37.4675 56.9078 40.9636C50.926 44.4584 45.4498 48.2329 44.739 49.3506C44.0281 50.4683 43.3513 54.3777 43.2334 58.0396Z" fill="black"/>
<path d="M108.942 89.365L97.052 95.9665L85.1621 102.568L73.4233 95.1111L61.6853 87.6546L62.1755 76.4471C62.9365 59.0638 61.925 60.779 75.7044 53.5042L87.5368 47.2577L99.0558 54.5595L110.573 61.8616L110.358 66.3741C110.24 68.8552 109.873 75.0442 109.542 80.1256L108.942 89.365Z" fill="white"/>
</svg>
