<svg width="614" height="137" viewBox="0 0 614 137" fill="none" xmlns="http://www.w3.org/2000/svg">
<path d="M126.904 106.636C124.312 108.259 115.017 113.012 106.246 117.2C89.7122 125.095 84.3423 126.757 95.653 120.479C114.256 110.154 124.925 103.276 126.704 100.463C127.793 98.737 129.145 91.061 129.705 83.4043C130.792 68.5683 132.243 55.2887 132.592 57.013C133.04 59.2319 132.747 87.5918 132.196 95.4328C131.63 103.461 131.487 103.767 126.904 106.636Z" fill="black"/>
<path d="M122.965 98.4033L103.444 109.567L83.9237 120.73L64.9671 108.689L46.0116 96.6481L47.0634 78.1405C48.6961 49.4342 47.0094 52.2879 69.6235 39.9704L89.0421 29.3941L107.644 41.1846L126.244 52.9756L125.792 60.4278C125.542 64.5251 124.804 74.7477 124.151 83.1413L122.965 98.4033Z" fill="black"/>
<path d="M43.2334 58.0396C43.1176 61.7011 42.6413 67.845 42.1752 71.6917L41.3311 78.6852L36.9912 68.3947C34.6043 62.7336 30.1807 52.8434 27.1618 46.4161C24.1417 39.9881 21.8425 34.4282 22.0498 34.0592C22.2583 33.6911 33.7339 33.3769 38.5748 33.5218C43.4149 33.668 53.8587 33.5682 61.7824 33.299C69.706 33.0297 68.6057 33.317 68.3146 33.7748C68.0235 34.2325 62.8904 37.4675 56.9078 40.9636C50.926 44.4584 45.4498 48.2329 44.739 49.3506C44.0281 50.4683 43.3513 54.3777 43.2334 58.0396Z" fill="black"/>
<path d="M108.942 89.365L97.052 95.9665L85.1621 102.568L73.4233 95.1111L61.6853 87.6546L62.1755 76.4471C62.9365 59.0638 61.925 60.779 75.7044 53.5042L87.5368 47.2577L99.0558 54.5595L110.573 61.8616L110.358 66.3741C110.24 68.8552 109.873 75.0442 109.542 80.1256L108.942 89.365Z" fill="white"/>
<path d="M201.018 67.1836C201.018 75.3867 197.518 80.0625 190.518 81.2109L201.592 105H192.281L181.371 81.498H162.955V105H154.547V46.1836H186.744C196.26 46.1836 201.018 50.9551 201.018 60.498V67.1836ZM162.955 73.0898H186.293C188.535 73.0898 190.148 72.5977 191.133 71.6133C192.117 70.6289 192.609 69.0156 192.609 66.7734V60.9082C192.609 58.666 192.117 57.0527 191.133 56.0684C190.148 55.084 188.535 54.5918 186.293 54.5918H162.955V73.0898ZM251.221 87.2813H222.305V96.9199H251.221V105H222.305C221.211 105 220.172 104.795 219.187 104.385C218.203 103.947 217.342 103.373 216.604 102.662C215.893 101.924 215.318 101.063 214.881 100.078C214.471 99.0938 214.266 98.041 214.266 96.9199V69.3984C214.266 68.2773 214.471 67.2246 214.881 66.2402C215.318 65.2559 215.893 64.4082 216.604 63.6973C217.342 62.959 218.203 62.3848 219.187 61.9746C220.172 61.5371 221.211 61.3184 222.305 61.3184H243.141C244.262 61.3184 245.314 61.5371 246.299 61.9746C247.283 62.3848 248.131 62.959 248.842 63.6973C249.58 64.4082 250.154 65.2559 250.564 66.2402C251.002 67.2246 251.221 68.2773 251.221 69.3984V87.2813ZM222.305 69.3984V79.2012H243.141V69.3984H222.305ZM262.172 61.3184H272.836V47.8652H280.916V61.3184H295.271V69.3984H280.916V96.9199H295.271V105H280.916C279.822 105 278.783 104.795 277.799 104.385C276.814 103.947 275.953 103.373 275.215 102.662C274.477 101.924 273.889 101.063 273.451 100.078C273.041 99.0938 272.836 98.041 272.836 96.9199V69.3984H262.172V61.3184ZM308.766 61.3184H316.805V96.9199H339.322V61.3184H347.402V105H339.322V97.6172C339.24 98.6289 338.967 99.5859 338.502 100.488C338.037 101.391 337.436 102.184 336.697 102.867C335.986 103.523 335.166 104.043 334.236 104.426C333.307 104.809 332.322 105 331.283 105H316.805C315.711 105 314.672 104.795 313.687 104.385C312.703 103.947 311.842 103.373 311.104 102.662C310.393 101.924 309.818 101.063 309.381 100.078C308.971 99.0938 308.766 98.041 308.766 96.9199V61.3184ZM368.895 69.3984V105H360.855V61.3184H368.895V69.0293C368.949 67.9629 369.195 66.9648 369.633 66.0352C370.07 65.0781 370.645 64.2578 371.355 63.5742C372.094 62.8633 372.941 62.3164 373.898 61.9336C374.855 61.5234 375.881 61.3184 376.975 61.3184H385.547C386.668 61.3184 387.707 61.5371 388.664 61.9746C389.648 62.3848 390.51 62.959 391.248 63.6973C391.986 64.4082 392.561 65.2559 392.971 66.2402C393.408 67.2246 393.627 68.2773 393.627 69.3984V76.7813H385.547V69.3984H368.895ZM442.312 105H434.232V69.3984H411.715V105H403.676V61.3184H411.715V69.0293C411.77 67.9629 412.016 66.9648 412.453 66.0352C412.891 65.0781 413.465 64.2578 414.176 63.5742C414.914 62.8633 415.762 62.3164 416.719 61.9336C417.676 61.5234 418.701 61.3184 419.795 61.3184H434.232C435.354 61.3184 436.406 61.5371 437.391 61.9746C438.375 62.3848 439.223 62.959 439.934 63.6973C440.672 64.4082 441.246 65.2559 441.656 66.2402C442.094 67.2246 442.312 68.2773 442.312 69.3984V105ZM507.076 46.1836V105H498.668V79.8164H464.994V105H456.586V46.1836H464.994V71.4082H498.668V46.1836H507.076ZM558.346 87.2813H529.43V96.9199H558.346V105H529.43C528.336 105 527.297 104.795 526.312 104.385C525.328 103.947 524.467 103.373 523.729 102.662C523.018 101.924 522.443 101.063 522.006 100.078C521.596 99.0938 521.391 98.041 521.391 96.9199V69.3984C521.391 68.2773 521.596 67.2246 522.006 66.2402C522.443 65.2559 523.018 64.4082 523.729 63.6973C524.467 62.959 525.328 62.3848 526.312 61.9746C527.297 61.5371 528.336 61.3184 529.43 61.3184H550.266C551.387 61.3184 552.439 61.5371 553.424 61.9746C554.408 62.3848 555.256 62.959 555.967 63.6973C556.705 64.4082 557.279 65.2559 557.689 66.2402C558.127 67.2246 558.346 68.2773 558.346 69.3984V87.2813ZM529.43 69.3984V79.2012H550.266V69.3984H529.43ZM609.902 61.3184L594.029 82.6465L610.641 105H600.879L589.148 89.209L577.377 105H567.615L584.268 82.6465L568.395 61.3184H578.115L589.148 76.084L600.141 61.3184H609.902Z" fill="black"/>
</svg>
